<?xml version="1.0" standalone="no"?>
<!DOCTYPE svg PUBLIC "-//W3C//DTD SVG 1.1//EN" "http://www.w3.org/Graphics/SVG/1.1/DTD/svg11.dtd" >
<svg xmlns="http://www.w3.org/2000/svg">
<metadata></metadata>
<defs>
<font id="SingleSleeveRegular" horiz-adv-x="585" >
<font-face units-per-em="2048" ascent="1638" descent="-410" />
<missing-glyph horiz-adv-x="351" />
<glyph horiz-adv-x="0" />
<glyph horiz-adv-x="2048" />
<glyph unicode="&#xd;" horiz-adv-x="569" />
<glyph unicode=" "  horiz-adv-x="351" />
<glyph unicode="&#x09;" horiz-adv-x="351" />
<glyph unicode="&#xa0;" horiz-adv-x="351" />
<glyph unicode="!" horiz-adv-x="305" d="M40 76v4q1 108 100 108h5q98 -3 98 -105v-14q-7 -108 -94 -108h-12q-97 7 -97 115zM66 1324l243 -9l-78 -979l-157 5z" />
<glyph unicode="&#x22;" horiz-adv-x="456" d="M25 1325q47 31 93 31t91 -31l-29 -352l-134 -5zM239 1326q46 31 109 36q50 -5 70 -36l-24 -357l-142 14z" />
<glyph unicode="#" horiz-adv-x="1139" />
<glyph unicode="$" horiz-adv-x="1139" />
<glyph unicode="%" horiz-adv-x="1821" />
<glyph unicode="&#x26;" horiz-adv-x="731" d="M35 357q0 99 40 190q29 49 84 115q-65 148 -97 296q-7 40 -3 76h-1q10 58 25 111q47 171 214 178v-1q187 -12 231 -180q16 -60 22.5 -111.5t-0.5 -108.5l-186 17q11 42 8 84q-14 134 -96 104l-13 -15q-59 -78 -11 -217q60 -201 235 -441q0 -1 1 -1q3 7 6 15q10 74 19 123 l184 -25q-33 -161 -92 -286q23 -48 108 -128l-110 -181q-59 58 -108 119q-73 -116 -210 -123v1q-171 14 -214 184q-36 106 -36 205zM239 303q13 -117 54 -127q45 9 98 88q-72 99 -129 197q-41 -76 -23 -158z" />
<glyph unicode="'" horiz-adv-x="234" d="M25 1325q46 31 92 31t92 -31l-29 -357l-150 5z" />
<glyph unicode="(" horiz-adv-x="417" d="M104 642q0 449 213 898l84 -63q-151 -239 -158.5 -840t142.5 -839l-85 -46q-196 441 -196 890z" />
<glyph unicode=")" horiz-adv-x="417" d="M-1 1477l84 63q213 -449 213 -898t-196 -890l-86 46q151 238 143 839t-158 840z" />
<glyph unicode="*" horiz-adv-x="797" />
<glyph unicode="+" horiz-adv-x="1196" />
<glyph unicode="," horiz-adv-x="280" d="M34 77v4q1 108 100 108h5q98 -3 98 -105q5 -14 5 -30v-8q0 -95 -96 -190l-58 -30l-46 48q66 66 62 93q-70 28 -70 110z" />
<glyph unicode="-" horiz-adv-x="399" d="M21 636l19 205h326l-12 -208z" />
<glyph unicode="." horiz-adv-x="270" d="M40 76v4q1 108 100 108h5q98 -3 98 -105v-14q-7 -108 -94 -108h-12q-97 7 -97 115z" />
<glyph unicode="/" horiz-adv-x="368" d="M-14 -237l260 1777l133 -15l-258 -1774z" />
<glyph unicode="0" d="M17 643q0 327 47 499t230 178v-1q187 -11 232 -180t45 -494h1q0 -327 -45 -496t-232 -182v-1q-183 7 -230 179t-47 498h-1zM204 643.5q0 -225.5 14.5 -344.5t71.5 -124v1q57 8 71 125.5t14 342.5t-14 342t-72 125v1q-56 -5 -70.5 -124t-14.5 -344.5z" />
<glyph unicode="1" horiz-adv-x="355" d="M30 1168q72 73 134 151l137 1l-2 -1354l-180 16l-7 1044l-74 -27z" />
<glyph unicode="2" horiz-adv-x="531" d="M27 955v11q0 85 30 198q46 166 222 166h8v-1q208 -13 227 -352v-5q0 -98 -37 -185q-47 -83 -143 -276q-130 -234 -112 -335l262 11l9 -207l-450 5q-14 102 -14 210.5t26 158.5q51 138 166 347.5t118 290.5q-15 117 -56 129q-90 -9 -92 -184z" />
<glyph unicode="3" horiz-adv-x="589" d="M23 954q0 88 29 187q48 160 223 179q199 -16 261 -165q31 -103 31 -203.5t-28 -164.5q-21 -97 -97 -123q79 -34 102 -145q19 -36 19 -165.5t-36 -256.5q-50 -133 -238 -146v-1q-157 3 -225 132q-30 85 -36 173l184 18q1 -53 9 -78q17 -56 73 -61v1q46 8 74 79 q7 150 1 234q-10 115 -207 107l-4 189q202 0 215 129q6 55 -6 130q-11 117 -69 125v1q-88 -8 -85 -192z" />
<glyph unicode="4" horiz-adv-x="606" d="M22 367l306 958l207 -8l2 -947h57l-5 -188h-55v-205l-184 -8l-1 217l-307 1zM226 374h123l2 441z" />
<glyph unicode="5" horiz-adv-x="569" d="M12 360l194 2q10 -183 77 -194v-1q57 3 71 121q15 60 15 173q-8 179 -85 191v-1q-32 -3 -76 -32l-154 63h-13l48 624l419 9l4 -212l-261 -12l-11 -269q28 44 115 21q186 -42 201 -388h-1q0 -214 -47 -325q-47 -169 -230 -171v1q-187 19 -232 189q-23 86 -34 211z" />
<glyph unicode="6" horiz-adv-x="577" d="M19 642l1 14q5 316 51 483.5t233 179.5v1q183 -6 228 -179q15 -56 25 -129l-180 -25q-13 120 -70 124q-57 -9 -73 -126q-7 -57 -20 -197q24 70 128 71q157 -33 196 -193q22 -90 19 -150h2v-10q1 -35 1 -67q0 -171 -39 -294q-50 -171 -233 -178v1q-187 12 -227.5 175 t-40.5 456v43h-1zM213 308q12 -117 82 -133v-1q57 5 74 124q14 76 19 130q-3 58 -7 101q-13 117 -77 122q-73 -4 -86 -133.5t-5 -209.5z" />
<glyph unicode="7" horiz-adv-x="522" d="M35 1308h466l-4 -208l-223 -1133l-192 8l226 1123l-271 2z" />
<glyph unicode="8" horiz-adv-x="589" d="M23 937q0 115 31 218q62 149 261 165q175 -19 223 -179q29 -99 29 -190.5t-33 -173.5q-19 -111 -89 -145q78 -38 97 -160q22 -86 22 -184t-38 -206q-68 -129 -225 -132v1q-188 13 -238 146q-36 127 -36 242t19 151q23 111 102 145q-76 26 -97 123q-28 64 -28 179z M216.5 838.5q5.5 -89.5 83.5 -97.5v-1q57 5 68 86q38 293 -76 303v-1q-58 -8 -69 -125q-12 -75 -6.5 -164.5zM220.5 424.5q-5.5 -89.5 1.5 -210.5q16 -71 74 -79v-1q56 5 73 61t3 242q-11 81 -68 86v-1q-78 -8 -83.5 -97.5z" />
<glyph unicode="9" horiz-adv-x="581" d="M23 848q0 171 39 294q50 171 233 178v-1q187 -12 229 -180q32 -153 32 -343.5t-51 -427t-151 -411.5l-190 51q115 196 190 449q-75 -36 -113 -29q-157 33 -196 193q-22 90 -19 150h-2v10q-1 35 -1 67zM195 859q3 -58 7 -101q13 -117 77 -122q73 4 86 133.5t5 209.5 q-12 117 -82 133v1q-57 -5 -74 -124q-14 -76 -19 -130z" />
<glyph unicode=":" horiz-adv-x="270" d="M40 76v4q1 108 100 108h5q98 -3 98 -105v-14q-7 -108 -94 -108h-12q-97 7 -97 115zM40 703v4q1 108 100 108h5q98 -3 98 -105v-14q-7 -108 -94 -108h-12q-97 7 -97 115z" />
<glyph unicode=";" horiz-adv-x="270" d="M40 76v4q1 108 100 108h5q98 -3 98 -105q5 -14 5 -30q0 -63 -75 -152l-79 -76l-46 48q24 62 41 101q-49 20 -49 102zM40 703v4q1 108 100 108h5q98 -3 98 -105v-14q-7 -108 -94 -108h-12q-97 7 -97 115z" />
<glyph unicode="&#x3c;" horiz-adv-x="1196" />
<glyph unicode="=" horiz-adv-x="1196" />
<glyph unicode="&#x3e;" horiz-adv-x="1196" />
<glyph unicode="?" horiz-adv-x="555" d="M28 1006q0 47 21 139q36 171 202 178l1 -1q187 -12 242 -180q36 -108 36 -200.5t-44 -179.5q-50 -68 -141 -185q-53 -106 30 -174l-130 -91q-129 65 -120 203q-3 117 118 248.5t95 226.5q-21 117 -79 125v1q-40 -5 -47 -124l5 -70l-187 6v11q-2 20 -2 67zM153 76v4 q1 108 100 108h5q98 -3 98 -105v-14q-7 -108 -94 -108h-12q-97 7 -97 115z" />
<glyph unicode="@" horiz-adv-x="2079" />
<glyph unicode="A" horiz-adv-x="523" d="M-28 -36l162 1339l229 21l186 -1316l-176 -6l-28 188l-165 -5l-20 -220zM201 377l118 -1l-72 450z" />
<glyph unicode="B" horiz-adv-x="602" d="M49 1309q85 6 200 6t170 -32q131 -56 137 -268v-19q0 -198 -120 -309q130 -93 136 -297q0 -317 -165 -382q-69 -31 -171 -34h-19q-74 0 -166 14zM235 1098l3 -350q8 -1 15 -1q59 0 91 57q24 49 24 121v11q-5 149 -96 161q-6 2 -29 2zM237 556l1 -412q87 1 129 75 q13 38 13 120q0 17 -1 35q-3 110 -37.5 143t-104.5 39z" />
<glyph unicode="C" d="M17 642q0 326 44.5 495.5t231.5 181.5v1q183 -6 231 -179q33 -122 43 -320l-184 -23q-4 115 -13 189q-14 120 -71 124q-57 -9 -71 -126.5t-14 -342.5t14 -342t71 -125v-1q57 5 72 124q9 75 12 192l186 -7q-9 -212 -44 -338q-48 -172 -231 -179v1q-187 12 -231 181 t-45 494h-1z" />
<glyph unicode="D" d="M42 -8l14 1322q57 15 116 15t115 -8v-1q185 -9 230 -177q46 -165 50 -487h1v-68q0 -281 -38 -433q-42 -168 -227 -182v-1q-41 -6 -105.5 -6t-155.5 26zM230 163q9 -2 18 -2q25 0 47 15v1q57 9 69 125q10 96 10 264v73q-2 221 -17.5 344.5t-72.5 131.5l-45 1z" />
<glyph unicode="E" horiz-adv-x="481" d="M36 -16l20 1334l407 -3l7 -207l-231 -3l-4 -262l186 -3l-6 -211l-183 1l-4 -431l239 -3l-7 -217z" />
<glyph unicode="F" horiz-adv-x="481" d="M49 -16l4 1333l406 -2l10 -208l-231 -2l-1 -262l195 5l9 -216l-204 -2l14 -642z" />
<glyph unicode="G" horiz-adv-x="599" d="M23 642v14q0 316 43.5 483.5t230.5 179.5v1q183 -6 231 -179q16 -56 27 -129l-177 -56q-9 150 -75 155q-57 -9 -71 -127q-12 -109 -12 -311v-31q1 -225 15 -342t71 -125v-1q57 5 72 124q20 120 20 242q0 30 -1 59l-99 2l-19 182l286 1q12 -136 12 -252v-10 q0 -231 -45 -377q-47 -172 -230 -179v1q-187 12 -232 181q-44 169 -46 494h-1z" />
<glyph unicode="H" horiz-adv-x="614" d="M40 -9l10 1337l194 -5l-2 -487h135l-3 462l190 -3l-8 -1329l-183 1l2 653h-134l-11 -620z" />
<glyph unicode="I" horiz-adv-x="301" d="M41 1320h180l17 -1354l-182 -2z" />
<glyph unicode="J" horiz-adv-x="627" d="M24 476l191 -7q5 -109 14 -182q25 -108 85 -108h7v1q66 21 73 105q5 50 5 168q0 79 -2 187q2 71 2 153q0 220 -17 523l190 13q22 -370 22 -497t-1 -191h1v-65q0 -322 -42 -452q-62 -146 -262 -146h-5q-250 4 -261 498z" />
<glyph unicode="K" horiz-adv-x="618" d="M47 -27l19 1353l194 -3l-9 -603l166 605l198 -17l-196 -656l200 -654l-199 -22l-171 614l-10 -617h-192z" />
<glyph unicode="L" horiz-adv-x="509" d="M38 -15l7 1333l178 -3l-2 -1129l262 24l5 -207z" />
<glyph unicode="M" horiz-adv-x="781" d="M12 -27l45 1352l177 -1v-1h49l111 -675l103 675l170 1l52 2l50 -1346l-177 -13l-26 689l-84 -499l-161 -19l-102 543l-20 -708h-187z" />
<glyph unicode="N" horiz-adv-x="664" d="M46 -7l3 1302l177 7l201 -672l-6 691l188 5l7 -1344l-179 2l-216 704l12 -693z" />
<glyph unicode="O" d="M17 645h1q0 325 45 494t232 180v1q183 -6 230 -178t47 -499h-1q0 -326 -47 -498t-230 -179v1q-187 13 -232 182t-45 496zM214 644q0 -225 14 -342.5t71 -125.5v-1q57 5 71 124q15 119 15 344.5t-14.5 344.5t-70.5 124v-1q-58 -8 -72 -125t-14 -342z" />
<glyph unicode="P" horiz-adv-x="602" d="M49 -15l2 1321q92 14 166 14h19q102 -3 171 -35q164 -65 168 -424q-9 -250 -139 -343q-95 -61 -189 -61h-9l-3 -262l4 -215zM237 649q70 6 104.5 38.5t41.5 190.5q-1 151 -16 196q-42 74 -129 75z" />
<glyph unicode="Q" horiz-adv-x="601" d="M21 645h1q1 325 45 494t231 180v1q183 -6 230.5 -178t47.5 -499h-1q0 -308 -42 -479l71 -176l-178 -34l-16 39q-48 -24 -113 -27v1q-187 13 -231.5 182t-44.5 496zM218 644q0 -225 14 -342.5t71 -125.5v-1q16 1 28 11l-97 239l153 59q2 72 2 228.5t-14.5 275.5t-71.5 124 v-1q-57 -8 -71 -125t-14 -342z" />
<glyph unicode="R" horiz-adv-x="618" d="M49 -15l2 1321q83 13 171 13q8 0 18 -1q98 -2 146 -12q173 -48 189 -445q-8 -236 -125 -332l170 -537l-186 -24l-151 491q-22 -3 -45 -2l-3 -262l4 -215zM237 649q70 6 104.5 38.5t41.5 190.5q-1 151 -16 196q-25 78 -97 78q-15 0 -32 -3z" />
<glyph unicode="S" horiz-adv-x="564" d="M15 398l184 25q9 -49 19 -123q15 -120 72 -124q41 10 54 127q6 25 6 50q0 103 -98 197q-120 117 -165 212q-57 100 -57 220q0 29 3 59q6 41 22 101q44 168 231 180v1q167 -7 214 -178q36 -126 45 -285l-186 -6q-3 63 -13 138q-14 119 -55 124v-1q-57 -8 -71 -125 q-3 -13 -2 -26q0 -86 112 -200q130 -132 178 -217q40 -91 40 -190t-36 -205q-43 -170 -214 -184v-1q-183 5 -233 177q-34 122 -50 254z" />
<glyph unicode="T" horiz-adv-x="526" d="M6 1119l3 208l504 -2l10 -212l-161 2l-4 -1135l-187 9l2 1126z" />
<glyph unicode="U" horiz-adv-x="606" d="M26 601v65h1q-1 39 -1 166t31 456l190 -13q-26 -295 -26 -503q0 -57 2 -107q-1 -71 -1 -130q0 -164 10 -227q14 -86 80 -107v-1h7q59 0 72 112q15 119 19 335q-5 259 -30 665l182 12q36 -333 36 -611q0 -68 -2 -133v-33q0 -539 -261 -564l-41 -3q-158 0 -218 136 q-50 163 -50 485z" />
<glyph unicode="V" horiz-adv-x="535" d="M-22 1302l189 16l105 -822l96 828l182 -25l-204 -1334l-177 -8z" />
<glyph unicode="W" horiz-adv-x="698" d="M-30 1321l177 13l27 -823l82 633l161 19l82 -664l41 829h187l-101 -1351l-182 1l-115 616l-99 -616l-195 3z" />
<glyph unicode="X" horiz-adv-x="535" d="M-24 1310l189 10l99 -325l83 318l191 -10l-178 -620l212 -688l-182 -23l-122 393l-102 -371l-189 4l195 678z" />
<glyph unicode="Y" horiz-adv-x="480" d="M-46 1317l198 3l112 -479l86 491l184 -20l-174 -768l3 -567l-190 3l-1 492z" />
<glyph unicode="Z" horiz-adv-x="522" d="M15 -13l4 210l269 896l-231 2l-16 231l436 -5l-2 -213l-272 -899l297 -4l-6 -224z" />
<glyph unicode="[" horiz-adv-x="569" />
<glyph unicode="\" horiz-adv-x="569" />
<glyph unicode="]" horiz-adv-x="569" />
<glyph unicode="^" horiz-adv-x="961" />
<glyph unicode="_" horiz-adv-x="1139" />
<glyph unicode="`" horiz-adv-x="540" d="M122 1711q25 50 65 72q50 17 73.5 17t34.5 -3l130 -267l-86 -44z" />
<glyph unicode="a" horiz-adv-x="523" d="M-28 -36l162 1339l229 21l186 -1316l-176 -6l-28 188l-165 -5l-20 -220zM201 377l118 -1l-72 450z" />
<glyph unicode="b" horiz-adv-x="602" d="M49 1309q85 6 200 6t170 -32q131 -56 137 -268v-19q0 -198 -120 -309q130 -93 136 -297q0 -317 -165 -382q-69 -31 -171 -34h-19q-74 0 -166 14zM235 1098l3 -350q8 -1 15 -1q59 0 91 57q24 49 24 121v11q-5 149 -96 161q-6 2 -29 2zM237 556l1 -412q87 1 129 75 q13 38 13 120q0 17 -1 35q-3 110 -37.5 143t-104.5 39z" />
<glyph unicode="c" d="M17 642q0 326 44.5 495.5t231.5 181.5v1q183 -6 231 -179q33 -122 43 -320l-184 -23q-4 115 -13 189q-14 120 -71 124q-57 -9 -71 -126.5t-14 -342.5t14 -342t71 -125v-1q57 5 72 124q9 75 12 192l186 -7q-9 -212 -44 -338q-48 -172 -231 -179v1q-187 12 -231 181 t-45 494h-1z" />
<glyph unicode="d" d="M42 -8l14 1322q57 15 116 15t115 -8v-1q185 -9 230 -177q46 -165 50 -487h1v-68q0 -281 -38 -433q-42 -168 -227 -182v-1q-41 -6 -105.5 -6t-155.5 26zM230 163q9 -2 18 -2q25 0 47 15v1q57 9 69 125q10 96 10 264v73q-2 221 -17.5 344.5t-72.5 131.5l-45 1z" />
<glyph unicode="e" horiz-adv-x="481" d="M36 -16l20 1334l407 -3l7 -207l-231 -3l-4 -262l186 -3l-6 -211l-183 1l-4 -431l239 -3l-7 -217z" />
<glyph unicode="f" horiz-adv-x="481" d="M49 -16l4 1333l406 -2l10 -208l-231 -2l-1 -262l195 5l9 -216l-204 -2l14 -642z" />
<glyph unicode="g" horiz-adv-x="599" d="M23 642v14q0 316 43.5 483.5t230.5 179.5v1q183 -6 231 -179q16 -56 27 -129l-177 -56q-9 150 -75 155q-57 -9 -71 -127q-12 -109 -12 -311v-31q1 -225 15 -342t71 -125v-1q57 5 72 124q20 120 20 242q0 30 -1 59l-99 2l-19 182l286 1q12 -136 12 -252v-10 q0 -231 -45 -377q-47 -172 -230 -179v1q-187 12 -232 181q-44 169 -46 494h-1z" />
<glyph unicode="h" horiz-adv-x="614" d="M40 -9l10 1337l194 -5l-2 -487h135l-3 462l190 -3l-8 -1329l-183 1l2 653h-134l-11 -620z" />
<glyph unicode="i" horiz-adv-x="301" d="M41 1320h180l17 -1354l-182 -2z" />
<glyph unicode="j" horiz-adv-x="627" d="M24 476l191 -7q5 -109 14 -182q25 -108 85 -108h7v1q66 21 73 105q5 50 5 168q0 79 -2 187q2 71 2 153q0 220 -17 523l190 13q22 -370 22 -497t-1 -191h1v-65q0 -322 -42 -452q-62 -146 -262 -146h-5q-250 4 -261 498z" />
<glyph unicode="k" horiz-adv-x="618" d="M47 -27l19 1353l194 -3l-9 -603l166 605l198 -17l-196 -656l200 -654l-199 -22l-171 614l-10 -617h-192z" />
<glyph unicode="l" horiz-adv-x="509" d="M38 -15l7 1333l178 -3l-2 -1129l262 24l5 -207z" />
<glyph unicode="m" horiz-adv-x="781" d="M12 -27l45 1352l177 -1v-1h49l111 -675l103 675l170 1l52 2l50 -1346l-177 -13l-26 689l-84 -499l-161 -19l-102 543l-20 -708h-187z" />
<glyph unicode="n" horiz-adv-x="664" d="M46 -7l3 1302l177 7l201 -672l-6 691l188 5l7 -1344l-179 2l-216 704l12 -693z" />
<glyph unicode="o" d="M17 645h1q0 325 45 494t232 180v1q183 -6 230 -178t47 -499h-1q0 -326 -47 -498t-230 -179v1q-187 13 -232 182t-45 496zM214 644q0 -225 14 -342.5t71 -125.5v-1q57 5 71 124q15 119 15 344.5t-14.5 344.5t-70.5 124v-1q-58 -8 -72 -125t-14 -342z" />
<glyph unicode="p" horiz-adv-x="602" d="M49 -15l2 1321q92 14 166 14h19q102 -3 171 -35q164 -65 168 -424q-9 -250 -139 -343q-95 -61 -189 -61h-9l-3 -262l4 -215zM237 649q70 6 104.5 38.5t41.5 190.5q-1 151 -16 196q-42 74 -129 75z" />
<glyph unicode="q" horiz-adv-x="601" d="M21 645h1q1 325 45 494t231 180v1q183 -6 230.5 -178t47.5 -499h-1q0 -308 -42 -479l71 -176l-178 -34l-16 39q-48 -24 -113 -27v1q-187 13 -231.5 182t-44.5 496zM218 644q0 -225 14 -342.5t71 -125.5v-1q16 1 28 11l-97 239l153 59q2 72 2 228.5t-14.5 275.5t-71.5 124 v-1q-57 -8 -71 -125t-14 -342z" />
<glyph unicode="r" horiz-adv-x="618" d="M49 -15l2 1321q83 13 171 13q8 0 18 -1q98 -2 146 -12q173 -48 189 -445q-8 -236 -125 -332l170 -537l-186 -24l-151 491q-22 -3 -45 -2l-3 -262l4 -215zM237 649q70 6 104.5 38.5t41.5 190.5q-1 151 -16 196q-25 78 -97 78q-15 0 -32 -3z" />
<glyph unicode="s" horiz-adv-x="564" d="M15 398l184 25q9 -49 19 -123q15 -120 72 -124q41 10 54 127q6 25 6 50q0 103 -98 197q-120 117 -165 212q-57 100 -57 220q0 29 3 59q6 41 22 101q44 168 231 180v1q167 -7 214 -178q36 -126 45 -285l-186 -6q-3 63 -13 138q-14 119 -55 124v-1q-57 -8 -71 -125 q-3 -13 -2 -26q0 -86 112 -200q130 -132 178 -217q40 -91 40 -190t-36 -205q-43 -170 -214 -184v-1q-183 5 -233 177q-34 122 -50 254z" />
<glyph unicode="t" horiz-adv-x="526" d="M6 1119l3 208l504 -2l10 -212l-161 2l-4 -1135l-187 9l2 1126z" />
<glyph unicode="u" horiz-adv-x="606" d="M26 601v65h1q-1 39 -1 166t31 456l190 -13q-26 -295 -26 -503q0 -57 2 -107q-1 -71 -1 -130q0 -164 10 -227q14 -86 80 -107v-1h7q59 0 72 112q15 119 19 335q-5 259 -30 665l182 12q36 -333 36 -611q0 -68 -2 -133v-33q0 -539 -261 -564l-41 -3q-158 0 -218 136 q-50 163 -50 485z" />
<glyph unicode="v" horiz-adv-x="535" d="M-22 1302l189 16l105 -822l96 828l182 -25l-204 -1334l-177 -8z" />
<glyph unicode="w" horiz-adv-x="698" d="M-30 1321l177 13l27 -823l82 633l161 19l82 -664l41 829h187l-101 -1351l-182 1l-115 616l-99 -616l-195 3z" />
<glyph unicode="x" horiz-adv-x="535" d="M-24 1310l189 10l99 -325l83 318l191 -10l-178 -620l212 -688l-182 -23l-122 393l-102 -371l-189 4l195 678z" />
<glyph unicode="y" horiz-adv-x="480" d="M-46 1317l198 3l112 -479l86 491l184 -20l-174 -768l3 -567l-190 3l-1 492z" />
<glyph unicode="z" horiz-adv-x="522" d="M15 -13l4 210l269 896l-231 2l-16 231l436 -5l-2 -213l-272 -899l297 -4l-6 -224z" />
<glyph unicode="{" horiz-adv-x="684" />
<glyph unicode="|" horiz-adv-x="532" />
<glyph unicode="}" horiz-adv-x="684" />
<glyph unicode="~" horiz-adv-x="1196" />
<glyph unicode="&#xa1;" horiz-adv-x="305" d="M15 -22l78 979l157 -5l8 -983zM81 1210v14q7 108 94 108h12q97 -7 97 -115v-4q-1 -108 -100 -108h-5q-98 3 -98 105z" />
<glyph unicode="&#xa2;" horiz-adv-x="1139" />
<glyph unicode="&#xa3;" horiz-adv-x="1139" />
<glyph unicode="&#xa5;" horiz-adv-x="1139" />
<glyph unicode="&#xa6;" horiz-adv-x="532" />
<glyph unicode="&#xa7;" horiz-adv-x="1139" />
<glyph unicode="&#xa8;" horiz-adv-x="652" d="M77 1618v4q1 108 100 108h5q98 -3 98 -105v-14q-7 -108 -94 -108h-12q-97 7 -97 115zM369 1618v4q1 108 100 108h5q98 -3 98 -105v-14q-7 -108 -94 -108h-12q-97 7 -97 115z" />
<glyph unicode="&#xa9;" horiz-adv-x="1509" />
<glyph unicode="&#xaa;" horiz-adv-x="758" />
<glyph unicode="&#xab;" horiz-adv-x="1139" />
<glyph unicode="&#xac;" horiz-adv-x="1196" />
<glyph unicode="&#xad;" horiz-adv-x="399" d="M21 636l19 205h326l-12 -208z" />
<glyph unicode="&#xae;" horiz-adv-x="1509" />
<glyph unicode="&#xb0;" horiz-adv-x="819" />
<glyph unicode="&#xb1;" horiz-adv-x="1124" />
<glyph unicode="&#xb2;" horiz-adv-x="682" />
<glyph unicode="&#xb3;" horiz-adv-x="682" />
<glyph unicode="&#xb4;" horiz-adv-x="540" d="M122 1530l130 267q11 3 34.5 3t73.5 -17q40 -22 65 -72l-217 -225z" />
<glyph unicode="&#xb5;" horiz-adv-x="1180" />
<glyph unicode="&#xb6;" horiz-adv-x="1100" />
<glyph unicode="&#xb7;" horiz-adv-x="569" />
<glyph unicode="&#xb8;" horiz-adv-x="280" d="M38 -305q0 82 70 110q4 27 -62 93l46 48l58 -30q96 -95 96 -190v-8q0 -16 -5 -30q0 -102 -98 -105h-5q-99 0 -100 108v4z" />
<glyph unicode="&#xb9;" horiz-adv-x="682" />
<glyph unicode="&#xba;" horiz-adv-x="748" />
<glyph unicode="&#xbb;" horiz-adv-x="1139" />
<glyph unicode="&#xbc;" horiz-adv-x="1708" />
<glyph unicode="&#xbd;" horiz-adv-x="1708" />
<glyph unicode="&#xbe;" horiz-adv-x="1708" />
<glyph unicode="&#xbf;" horiz-adv-x="555" d="M28 347.5q0 92.5 44 179.5q50 68 141 185q53 106 -30 174l130 91q129 -65 120 -203q3 -117 -118 -248.5t-95 -226.5q21 -117 79 -125v-1q40 5 47 124l-5 70l187 -6v-11q2 -20 2 -67t-21 -139q-36 -171 -202 -178l-1 1q-187 12 -242 180q-36 108 -36 200.5zM202 1206v14 q7 108 94 108h12q97 -7 97 -115v-4q-1 -108 -100 -108h-5q-98 3 -98 105z" />
<glyph unicode="&#xc0;" horiz-adv-x="527" d="M-25 -36l162 1339l229 21l186 -1316l-176 -6l-28 188l-165 -5l-20 -220zM12 1711q25 50 65 72q50 17 73.5 17t34.5 -3l130 -267l-86 -44zM204 377l118 -1l-72 450z" />
<glyph unicode="&#xc1;" horiz-adv-x="523" d="M-28 -36l162 1339l229 21l186 -1316l-176 -6l-28 188l-165 -5l-20 -220zM157 1531l130 267q11 3 34.5 3t73.5 -17q40 -22 65 -72l-217 -225zM201 377l118 -1l-72 450z" />
<glyph unicode="&#xc2;" horiz-adv-x="527" d="M-28 -36l162 1339l229 21l186 -1316l-176 -6l-28 188l-165 -5l-20 -220zM49 1512l121 285q44 20 87 20t85 -20l117 -297l-156 -22l-64 167l-40 -143zM201 377l118 -1l-72 450z" />
<glyph unicode="&#xc3;" horiz-adv-x="523" d="M-28 -36l162 1339l229 21l186 -1316l-176 -6l-28 188l-165 -5l-20 -220zM-17 1659l103 79q37 25 80.5 25t89.5 -54l39 -37l-2 -2q31 -26 70 15l73 78l39 -182l-33 -40q-46 -64 -134 -64h-11q-38 0 -67 30l-58 67l1 1q-31 26 -70 -15l-73 -78zM201 377l118 -1l-72 450z " />
<glyph unicode="&#xc4;" horiz-adv-x="527" d="M-28 -36l162 1339l229 21l186 -1316l-176 -6l-28 188l-165 -5l-20 -220zM-2 1618v4q1 108 100 108h5q98 -3 98 -105v-14q-7 -108 -94 -108h-12q-97 7 -97 115zM201 377l118 -1l-72 450zM290 1618v4q1 108 100 108h5q98 -3 98 -105v-14q-7 -108 -94 -108h-12 q-97 7 -97 115z" />
<glyph unicode="&#xc5;" horiz-adv-x="1366" />
<glyph unicode="&#xc6;" horiz-adv-x="2048" />
<glyph unicode="&#xc7;" d="M17 642q0 326 44.5 495.5t231.5 181.5v1q183 -6 231 -179q33 -122 43 -320l-184 -23q-4 115 -13 189q-14 120 -71 124q-57 -9 -71 -126.5t-14 -342.5t14 -342t71 -125v-1q57 5 72 124q9 75 12 192l186 -7q-9 -212 -44 -338q-48 -172 -231 -179v1q-187 12 -231 181 t-45 494h-1zM199 -305q0 82 70 110q4 27 -62 93l46 48l58 -30q96 -95 96 -190v-8q0 -16 -5 -30q0 -102 -98 -105h-5q-99 0 -100 108v4z" />
<glyph unicode="&#xc8;" horiz-adv-x="481" d="M36 -16l20 1334l407 -3l7 -207l-231 -3l-4 -262l186 -3l-6 -211l-183 1l-4 -431l239 -3l-7 -217zM46 1711q25 50 65 72q50 17 73.5 17t34.5 -3l130 -267l-86 -44z" />
<glyph unicode="&#xc9;" horiz-adv-x="481" d="M36 -16l20 1334l407 -3l7 -207l-231 -3l-4 -262l186 -3l-6 -211l-183 1l-4 -431l239 -3l-7 -217zM145 1530l130 267q11 3 34.5 3t73.5 -17q40 -22 65 -72l-217 -225z" />
<glyph unicode="&#xca;" horiz-adv-x="481" d="M36 -16l20 1334l407 -3l7 -207l-231 -3l-4 -262l186 -3l-6 -211l-183 1l-4 -431l239 -3l-7 -217zM43 1512l121 285q44 20 87 20t85 -20l117 -297l-156 -22l-64 167l-40 -143z" />
<glyph unicode="&#xcb;" horiz-adv-x="481" d="M30 1618v4q1 108 100 108h5q98 -3 98 -105v-14q-7 -108 -94 -108h-12q-97 7 -97 115zM36 -16l20 1334l407 -3l7 -207l-231 -3l-4 -262l186 -3l-6 -211l-183 1l-4 -431l239 -3l-7 -217zM322 1618v4q1 108 100 108h5q98 -3 98 -105v-14q-7 -108 -94 -108h-12q-97 7 -97 115 z" />
<glyph unicode="&#xcc;" horiz-adv-x="301" d="M-129 1711q25 50 65 72q50 17 73.5 17t34.5 -3l130 -267l-86 -44zM41 1320h180l17 -1354l-182 -2z" />
<glyph unicode="&#xcd;" horiz-adv-x="301" d="M41 1320h180l17 -1354l-182 -2zM54 1530l130 267q11 3 34.5 3t73.5 -17q40 -22 65 -72l-217 -225z" />
<glyph unicode="&#xce;" horiz-adv-x="301" d="M-32 1512l97 285q35 20 69.5 20t67.5 -20l94 -297l-125 -22l-51 167l-32 -143zM41 1320h180l17 -1354l-182 -2z" />
<glyph unicode="&#xcf;" horiz-adv-x="301" d="M-124 1618v4q1 108 100 108h5q98 -3 98 -105v-14q-7 -108 -94 -108h-12q-97 7 -97 115zM42 1320h180l17 -1354l-182 -2zM168 1618v4q1 108 100 108h5q98 -3 98 -105v-14q-7 -108 -94 -108h-12q-97 7 -97 115z" />
<glyph unicode="&#xd0;" horiz-adv-x="1479" />
<glyph unicode="&#xd1;" horiz-adv-x="664" d="M46 -7l3 1302l177 7l201 -672l-6 691l188 5l7 -1344l-179 2l-216 704l12 -693zM88 1659l103 79q37 25 80.5 25t89.5 -54l39 -37l-2 -2q31 -26 70 15l73 78l39 -182l-33 -40q-46 -64 -134 -64h-11q-38 0 -67 30l-58 67l1 1q-31 26 -70 -15l-73 -78z" />
<glyph unicode="&#xd2;" d="M17 645h1q0 325 45 494t232 180v1q183 -6 230 -178t47 -499h-1q0 -326 -47 -498t-230 -179v1q-187 13 -232 182t-45 496zM59 1711q25 50 65 72q50 17 73.5 17t34.5 -3l130 -267l-86 -44zM214 644q0 -225 14 -342.5t71 -125.5v-1q57 5 71 124q15 119 15 344.5t-14.5 344.5 t-70.5 124v-1q-58 -8 -72 -125t-14 -342z" />
<glyph unicode="&#xd3;" d="M17 645h1q0 325 45 494t232 180v1q183 -6 230 -178t47 -499h-1q0 -326 -47 -498t-230 -179v1q-187 13 -232 182t-45 496zM214 644q0 -225 14 -342.5t71 -125.5v-1q57 5 71 124q15 119 15 344.5t-14.5 344.5t-70.5 124v-1q-58 -8 -72 -125t-14 -342zM224 1530l130 267 q11 3 34.5 3t73.5 -17q40 -22 65 -72l-217 -225z" />
<glyph unicode="&#xd4;" d="M17 645h1q0 325 45 494t232 180v1q183 -6 230 -178t47 -499h-1q0 -326 -47 -498t-230 -179v1q-187 13 -232 182t-45 496zM85 1512l121 285q44 20 87 20t85 -20l117 -297l-156 -22l-64 167l-40 -143zM214 644q0 -225 14 -342.5t71 -125.5v-1q57 5 71 124q15 119 15 344.5 t-14.5 344.5t-70.5 124v-1q-58 -8 -72 -125t-14 -342z" />
<glyph unicode="&#xd5;" d="M17 645h1q0 325 45 494t232 180v1q183 -6 230 -178t47 -499h-1q0 -326 -47 -498t-230 -179v1q-187 13 -232 182t-45 496zM53 1659l103 79q37 25 80.5 25t89.5 -54l39 -37l-2 -2q31 -26 70 15l73 78l39 -182l-33 -40q-46 -64 -134 -64h-11q-38 0 -67 30l-58 67l1 1 q-31 26 -70 -15l-73 -78zM214 644q0 -225 14 -342.5t71 -125.5v-1q57 5 71 124q15 119 15 344.5t-14.5 344.5t-70.5 124v-1q-58 -8 -72 -125t-14 -342z" />
<glyph unicode="&#xd6;" d="M17 645h1q0 325 45 494t232 180v1q183 -6 230 -178t47 -499h-1q0 -326 -47 -498t-230 -179v1q-187 13 -232 182t-45 496zM52 1619v4q1 108 100 108h5q98 -3 98 -105v-14q-7 -108 -94 -108h-12q-97 7 -97 115zM214 644q0 -225 14 -342.5t71 -125.5v-1q57 5 71 124 q15 119 15 344.5t-14.5 344.5t-70.5 124v-1q-58 -8 -72 -125t-14 -342zM344 1619v4q1 108 100 108h5q98 -3 98 -105v-14q-7 -108 -94 -108h-12q-97 7 -97 115z" />
<glyph unicode="&#xd7;" horiz-adv-x="1196" />
<glyph unicode="&#xd8;" horiz-adv-x="1593" />
<glyph unicode="&#xd9;" horiz-adv-x="606" d="M26 601v65h1q-1 39 -1 166t31 456l190 -13q-33 -375 -24 -610q-5 -271 9 -357t80 -107v-1q65 -7 79 112q15 119 19 335q-5 259 -30 665l182 12q36 -333 36 -611q0 -68 -2 -133v-33q0 -539 -261 -564l-41 -3q-158 0 -218 136q-50 163 -50 485zM64 1711q25 50 65 72 q50 17 73.5 17t34.5 -3l130 -267l-86 -44z" />
<glyph unicode="&#xda;" horiz-adv-x="606" d="M26 601v65h1q-1 39 -1 166t31 456l190 -13q-33 -375 -24 -610q-5 -271 9 -357t80 -107v-1q65 -7 79 112q15 119 19 335q-5 259 -30 665l182 12q36 -333 36 -611q0 -68 -2 -133v-33q0 -539 -261 -564l-41 -3q-158 0 -218 136q-50 163 -50 485zM226 1530l130 267 q11 3 34.5 3t73.5 -17q40 -22 65 -72l-217 -225z" />
<glyph unicode="&#xdb;" horiz-adv-x="606" d="M26 601v65h1q-1 39 -1 166t31 456l190 -13q-33 -375 -24 -610q-5 -271 9 -357t80 -107v-1q65 -7 79 112q15 119 19 335q-5 259 -30 665l182 12q36 -333 36 -611q0 -68 -2 -133v-33q0 -539 -261 -564l-41 -3q-158 0 -218 136q-50 163 -50 485zM83 1512l121 285 q44 20 87 20t85 -20l117 -297l-156 -22l-64 167l-40 -143z" />
<glyph unicode="&#xdc;" horiz-adv-x="606" d="M26 601v65h1q-1 39 -1 166t31 456l190 -13q-33 -375 -24 -610q-5 -271 9 -357t80 -107v-1q65 -7 79 112q15 119 19 335q-5 259 -30 665l182 12q36 -333 36 -611q0 -68 -2 -133v-33q0 -539 -261 -564l-41 -3q-158 0 -218 136q-50 163 -50 485zM60 1619v4q1 108 100 108h5 q98 -3 98 -105v-14q-7 -108 -94 -108h-12q-97 7 -97 115zM353 1618v4q1 108 100 108h5q98 -3 98 -105v-14q-7 -108 -94 -108h-12q-97 7 -97 115z" />
<glyph unicode="&#xdd;" horiz-adv-x="480" d="M-46 1317l198 3l112 -479l86 491l184 -20l-174 -768l3 -567l-190 3l-1 492zM177 1530l130 267q11 3 34.5 3t73.5 -17q40 -22 65 -72l-217 -225z" />
<glyph unicode="&#xde;" horiz-adv-x="1366" />
<glyph unicode="&#xdf;" horiz-adv-x="649" d="M27 2l3 949l-1 48h5q8 64 29 142q48 173 231 179v-1q164 -11 229 -168q50 -93 50 -198.5t-79 -223.5q141 -125 141 -380q0 -389 -241 -389q-66 0 -150 29l39 235q36 -51 96 -66q49 21 63 107q1 287 -125 313l-51 116q134 118 113 318l-3 -2q-31 92 -88 101 q-57 -4 -71 -124q-7 -56 -11 -135l3 -889z" />
<glyph unicode="&#xe0;" horiz-adv-x="527" d="M-25 -36l162 1339l229 21l186 -1316l-176 -6l-28 188l-165 -5l-20 -220zM12 1711q25 50 65 72q50 17 73.5 17t34.5 -3l130 -267l-86 -44zM204 377l118 -1l-72 450z" />
<glyph unicode="&#xe1;" horiz-adv-x="523" d="M-28 -36l162 1339l229 21l186 -1316l-176 -6l-28 188l-165 -5l-20 -220zM157 1531l130 267q11 3 34.5 3t73.5 -17q40 -22 65 -72l-217 -225zM201 377l118 -1l-72 450z" />
<glyph unicode="&#xe2;" horiz-adv-x="527" d="M-28 -36l162 1339l229 21l186 -1316l-176 -6l-28 188l-165 -5l-20 -220zM49 1512l121 285q44 20 87 20t85 -20l117 -297l-156 -22l-64 167l-40 -143zM201 377l118 -1l-72 450z" />
<glyph unicode="&#xe3;" horiz-adv-x="523" d="M-28 -36l162 1339l229 21l186 -1316l-176 -6l-28 188l-165 -5l-20 -220zM-17 1659l103 79q37 25 80.5 25t89.5 -54l39 -37l-2 -2q31 -26 70 15l73 78l39 -182l-33 -40q-46 -64 -134 -64h-11q-38 0 -67 30l-58 67l1 1q-31 26 -70 -15l-73 -78zM201 377l118 -1l-72 450z " />
<glyph unicode="&#xe4;" horiz-adv-x="527" d="M-28 -36l162 1339l229 21l186 -1316l-176 -6l-28 188l-165 -5l-20 -220zM-2 1618v4q1 108 100 108h5q98 -3 98 -105v-14q-7 -108 -94 -108h-12q-97 7 -97 115zM201 377l118 -1l-72 450zM290 1618v4q1 108 100 108h5q98 -3 98 -105v-14q-7 -108 -94 -108h-12 q-97 7 -97 115z" />
<glyph unicode="&#xe5;" horiz-adv-x="1139" />
<glyph unicode="&#xe6;" horiz-adv-x="1821" />
<glyph unicode="&#xe7;" d="M17 642q0 326 44.5 495.5t231.5 181.5v1q183 -6 231 -179q33 -122 43 -320l-184 -23q-4 115 -13 189q-14 120 -71 124q-57 -9 -71 -126.5t-14 -342.5t14 -342t71 -125v-1q57 5 72 124q9 75 12 192l186 -7q-9 -212 -44 -338q-48 -172 -231 -179v1q-187 12 -231 181 t-45 494h-1zM199 -305q0 82 70 110q4 27 -62 93l46 48l58 -30q96 -95 96 -190v-8q0 -16 -5 -30q0 -102 -98 -105h-5q-99 0 -100 108v4z" />
<glyph unicode="&#xe8;" horiz-adv-x="481" d="M36 -16l20 1334l407 -3l7 -207l-231 -3l-4 -262l186 -3l-6 -211l-183 1l-4 -431l239 -3l-7 -217zM47 1711q25 50 65 72q50 17 73.5 17t34.5 -3l130 -267l-86 -44z" />
<glyph unicode="&#xe9;" horiz-adv-x="481" d="M36 -16l20 1334l407 -3l7 -207l-231 -3l-4 -262l186 -3l-6 -211l-183 1l-4 -431l239 -3l-7 -217zM145 1530l130 267q11 3 34.5 3t73.5 -17q40 -22 65 -72l-217 -225z" />
<glyph unicode="&#xea;" horiz-adv-x="481" d="M36 -16l20 1334l407 -3l7 -207l-231 -3l-4 -262l186 -3l-6 -211l-183 1l-4 -431l239 -3l-7 -217zM43 1512l121 285q44 20 87 20t85 -20l117 -297l-156 -22l-64 167l-40 -143z" />
<glyph unicode="&#xeb;" horiz-adv-x="481" d="M30 1618v4q1 108 100 108h5q98 -3 98 -105v-14q-7 -108 -94 -108h-12q-97 7 -97 115zM36 -16l20 1334l407 -3l7 -207l-231 -3l-4 -262l186 -3l-6 -211l-183 1l-4 -431l239 -3l-7 -217zM322 1618v4q1 108 100 108h5q98 -3 98 -105v-14q-7 -108 -94 -108h-12q-97 7 -97 115 z" />
<glyph unicode="&#xec;" horiz-adv-x="301" d="M-129 1711q25 50 65 72q50 17 73.5 17t34.5 -3l130 -267l-86 -44zM41 1320h180l17 -1354l-182 -2z" />
<glyph unicode="&#xed;" horiz-adv-x="301" d="M41 1320h180l17 -1354l-182 -2zM54 1530l130 267q11 3 34.5 3t73.5 -17q40 -22 65 -72l-217 -225z" />
<glyph unicode="&#xee;" horiz-adv-x="301" d="M-12 1512l97 285q35 20 69 20q35 0 68 -20l94 -297l-125 -22l-51 167l-32 -143zM41 1320h180l17 -1354l-182 -2z" />
<glyph unicode="&#xef;" horiz-adv-x="301" d="M-124 1618v4q1 108 100 108h5q98 -3 98 -105v-14q-7 -108 -94 -108h-12q-97 7 -97 115zM42 1320h180l17 -1354l-182 -2zM168 1618v4q1 108 100 108h5q98 -3 98 -105v-14q-7 -108 -94 -108h-12q-97 7 -97 115z" />
<glyph unicode="&#xf0;" horiz-adv-x="1139" />
<glyph unicode="&#xf1;" horiz-adv-x="664" d="M46 -7l3 1302l177 7l201 -672l-6 691l188 5l7 -1344l-179 2l-216 704l12 -693zM88 1659l103 79q37 25 80.5 25t89.5 -54l39 -37l-2 -2q31 -26 70 15l73 78l39 -182l-33 -40q-46 -64 -134 -64h-11q-38 0 -67 30l-58 67l1 1q-31 26 -70 -15l-73 -78z" />
<glyph unicode="&#xf2;" d="M17 645h1q0 325 45 494t232 180v1q183 -6 230 -178t47 -499h-1q0 -326 -47 -498t-230 -179v1q-187 13 -232 182t-45 496zM60 1711q25 50 65 72q50 17 73.5 17t34.5 -3l130 -267l-86 -44zM214 644q0 -225 14 -342.5t71 -125.5v-1q57 5 71 124q15 119 15 344.5t-14.5 344.5 t-70.5 124v-1q-58 -8 -72 -125t-14 -342z" />
<glyph unicode="&#xf3;" d="M17 645h1q0 325 45 494t232 180v1q183 -6 230 -178t47 -499h-1q0 -326 -47 -498t-230 -179v1q-187 13 -232 182t-45 496zM214 644q0 -225 14 -342.5t71 -125.5v-1q57 5 71 124q15 119 15 344.5t-14.5 344.5t-70.5 124v-1q-58 -8 -72 -125t-14 -342zM224 1530l130 267 q11 3 34.5 3t73.5 -17q40 -22 65 -72l-217 -225z" />
<glyph unicode="&#xf4;" d="M17 645h1q0 325 45 494t232 180v1q183 -6 230 -178t47 -499h-1q0 -326 -47 -498t-230 -179v1q-187 13 -232 182t-45 496zM85 1512l121 285q44 20 87 20t85 -20l117 -297l-156 -22l-64 167l-40 -143zM214 644q0 -225 14 -342.5t71 -125.5v-1q57 5 71 124q15 119 15 344.5 t-14.5 344.5t-70.5 124v-1q-58 -8 -72 -125t-14 -342z" />
<glyph unicode="&#xf5;" d="M17 645h1q0 325 45 494t232 180v1q183 -6 230 -178t47 -499h-1q0 -326 -47 -498t-230 -179v1q-187 13 -232 182t-45 496zM53 1659l103 79q37 25 80.5 25t89.5 -54l39 -37l-2 -2q31 -26 70 15l73 78l39 -182l-33 -40q-46 -64 -134 -64h-11q-38 0 -67 30l-58 67l1 1 q-31 26 -70 -15l-73 -78zM214 644q0 -225 14 -342.5t71 -125.5v-1q57 5 71 124q15 119 15 344.5t-14.5 344.5t-70.5 124v-1q-58 -8 -72 -125t-14 -342z" />
<glyph unicode="&#xf6;" d="M17 645h1q0 325 45 494t232 180v1q183 -6 230 -178t47 -499h-1q0 -326 -47 -498t-230 -179v1q-187 13 -232 182t-45 496zM52 1618v4q1 108 100 108h5q98 -3 98 -105v-14q-7 -108 -94 -108h-12q-97 7 -97 115zM214 644q0 -225 14 -342.5t71 -125.5v-1q57 5 71 124 q15 119 15 344.5t-14.5 344.5t-70.5 124v-1q-58 -8 -72 -125t-14 -342zM344 1618v4q1 108 100 108h5q98 -3 98 -105v-14q-7 -108 -94 -108h-12q-97 7 -97 115z" />
<glyph unicode="&#xf7;" horiz-adv-x="1124" />
<glyph unicode="&#xf8;" horiz-adv-x="1251" />
<glyph unicode="&#xf9;" horiz-adv-x="606" d="M26 601v65h1q-1 39 -1 166t31 456l190 -13q-33 -375 -24 -610q-5 -271 9 -357t80 -107v-1q65 -7 79 112q15 119 19 335q-5 259 -30 665l182 12q36 -333 36 -611q0 -68 -2 -133v-33q0 -539 -261 -564l-41 -3q-158 0 -218 136q-50 163 -50 485zM64 1711q25 50 65 72 q50 17 73.5 17t34.5 -3l130 -267l-86 -44z" />
<glyph unicode="&#xfa;" horiz-adv-x="606" d="M26 601v65h1q-1 39 -1 166t31 456l190 -13q-33 -375 -24 -610q-5 -271 9 -357t80 -107v-1q65 -7 79 112q15 119 19 335q-5 259 -30 665l182 12q36 -333 36 -611q0 -68 -2 -133v-33q0 -539 -261 -564l-41 -3q-158 0 -218 136q-50 163 -50 485zM226 1530l130 267 q11 3 34.5 3t73.5 -17q40 -22 65 -72l-217 -225z" />
<glyph unicode="&#xfb;" horiz-adv-x="606" d="M26 601v65h1q-1 39 -1 166t31 456l190 -13q-33 -375 -24 -610q-5 -271 9 -357t80 -107v-1q65 -7 79 112q15 119 19 335q-5 259 -30 665l182 12q36 -333 36 -611q0 -68 -2 -133v-33q0 -539 -261 -564l-41 -3q-158 0 -218 136q-50 163 -50 485zM83 1512l121 285 q44 20 87 20t85 -20l117 -297l-156 -22l-64 167l-40 -143z" />
<glyph unicode="&#xfc;" horiz-adv-x="606" d="M26 601v65h1q-1 39 -1 166t31 456l190 -13q-33 -375 -24 -610q-5 -271 9 -357t80 -107v-1q65 -7 79 112q15 119 19 335q-5 259 -30 665l182 12q36 -333 36 -611q0 -68 -2 -133v-33q0 -539 -261 -564l-41 -3q-158 0 -218 136q-50 163 -50 485zM61 1618v4q1 108 100 108h5 q98 -3 98 -105v-14q-7 -108 -94 -108h-12q-97 7 -97 115zM353 1618v4q1 108 100 108h5q98 -3 98 -105v-14q-7 -108 -94 -108h-12q-97 7 -97 115z" />
<glyph unicode="&#xfd;" horiz-adv-x="480" d="M-46 1317l198 3l112 -479l86 491l184 -20l-174 -768l3 -567l-190 3l-1 492zM177 1530l130 267q11 3 34.5 3t73.5 -17q40 -22 65 -72l-217 -225z" />
<glyph unicode="&#xfe;" horiz-adv-x="1139" />
<glyph unicode="&#xff;" horiz-adv-x="480" d="M-46 1317l198 3l112 -479l86 491l184 -20l-174 -768l3 -567l-190 3l-1 492zM0 1618v4q1 108 100 108h5q98 -3 98 -105v-14q-7 -108 -94 -108h-12q-97 7 -97 115zM292 1618v4q1 108 100 108h5q98 -3 98 -105v-14q-7 -108 -94 -108h-12q-97 7 -97 115z" />
<glyph unicode="&#x152;" horiz-adv-x="2048" />
<glyph unicode="&#x153;" horiz-adv-x="1933" />
<glyph unicode="&#x178;" horiz-adv-x="480" d="M-46 1317l198 3l112 -479l86 491l184 -20l-174 -768l3 -567l-190 3l-1 492zM0 1619v4q1 108 100 108h5q98 -3 98 -105v-14q-7 -108 -94 -108h-12q-97 7 -97 115zM292 1618v4q1 108 100 108h5q98 -3 98 -105v-14q-7 -108 -94 -108h-12q-97 7 -97 115z" />
<glyph unicode="&#x2c6;" horiz-adv-x="539" d="M80 1512l121 285q44 20 87 20t85 -20l117 -297l-156 -22l-64 167l-40 -143z" />
<glyph unicode="&#x2dc;" horiz-adv-x="539" d="M39 1659l103 79q37 25 80.5 25t89.5 -54l39 -37l-2 -2q31 -26 70 15l73 78l39 -182l-33 -40q-46 -64 -134 -64h-11q-38 0 -67 30l-58 67l1 1q-31 26 -70 -15l-73 -78z" />
<glyph unicode="&#x2000;" horiz-adv-x="908" />
<glyph unicode="&#x2001;" horiz-adv-x="1817" />
<glyph unicode="&#x2002;" horiz-adv-x="908" />
<glyph unicode="&#x2003;" horiz-adv-x="1817" />
<glyph unicode="&#x2004;" horiz-adv-x="605" />
<glyph unicode="&#x2005;" horiz-adv-x="454" />
<glyph unicode="&#x2006;" horiz-adv-x="302" />
<glyph unicode="&#x2007;" horiz-adv-x="302" />
<glyph unicode="&#x2008;" horiz-adv-x="227" />
<glyph unicode="&#x2009;" horiz-adv-x="363" />
<glyph unicode="&#x200a;" horiz-adv-x="100" />
<glyph unicode="&#x2010;" horiz-adv-x="399" d="M21 636l19 205h326l-12 -208z" />
<glyph unicode="&#x2011;" horiz-adv-x="399" d="M21 636l19 205h326l-12 -208z" />
<glyph unicode="&#x2012;" horiz-adv-x="399" d="M21 636l19 205h326l-12 -208z" />
<glyph unicode="&#x2013;" horiz-adv-x="1139" />
<glyph unicode="&#x2014;" horiz-adv-x="2048" />
<glyph unicode="&#x2018;" horiz-adv-x="270" d="M33 1110q0 63 75 152l79 76l46 -48q-24 -62 -41 -101q49 -20 49 -102v-4q-1 -108 -100 -108h-5q-98 3 -98 105q-5 14 -5 30z" />
<glyph unicode="&#x2019;" horiz-adv-x="270" d="M33 1226v4q1 108 100 108h5q98 -3 98 -105q5 -14 5 -30q0 -63 -75 -152l-79 -76l-46 48q24 62 41 101q-49 20 -49 102z" />
<glyph unicode="&#x201a;" horiz-adv-x="455" />
<glyph unicode="&#x201c;" horiz-adv-x="508" d="M33 1110q0 63 75 152l79 76l46 -48q-24 -62 -41 -101q49 -20 49 -102v-4q-1 -108 -100 -108h-5q-98 3 -98 105q-5 14 -5 30zM267 1110q-4 100 96 198l58 30l46 -48q-66 -66 -62 -93q70 -28 70 -110v-4q-1 -108 -100 -108h-5q-98 3 -98 105q-5 14 -5 30z" />
<glyph unicode="&#x201d;" horiz-adv-x="508" d="M33 1226v4q1 108 100 108h5q98 -3 98 -105q5 -14 5 -30q4 -100 -96 -198l-58 -30l-46 48q66 66 62 93q-70 28 -70 110zM267 1226v4q1 108 100 108h5q98 -3 98 -105q5 -14 5 -30q0 -63 -75 -152l-79 -76l-46 48q24 62 41 101q-49 20 -49 102z" />
<glyph unicode="&#x201e;" horiz-adv-x="682" />
<glyph unicode="&#x2022;" horiz-adv-x="717" />
<glyph unicode="&#x2026;" horiz-adv-x="2048" />
<glyph unicode="&#x202f;" horiz-adv-x="363" />
<glyph unicode="&#x2039;" horiz-adv-x="682" />
<glyph unicode="&#x203a;" horiz-adv-x="682" />
<glyph unicode="&#x205f;" horiz-adv-x="454" />
<glyph unicode="&#x20ac;" horiz-adv-x="650" d="M17 816h71q9 201 41 322q44 169 231 181v1q183 -6 231 -179q13 -48 22 -108l-176 -46q-14 120 -71 124q-57 -9 -71 -126q-8 -68 -11 -170l293 -5l8 -106l-304 3v-122l305 -3l8 -110l-311 5q4 -107 12 -177q14 -117 71 -125v-1q57 5 72 124l181 -16q-11 -78 -27 -137 q-48 -172 -231 -179v1q-187 12 -231 181q-32 123 -41 330h-55l-8 106h60q-1 28 -1 58h-1v64h-59z" />
<glyph unicode="&#x2122;" horiz-adv-x="2048" />
<glyph unicode="&#xe000;" horiz-adv-x="1320" d="M0 0v1320h1320v-1320h-1320z" />
</font>
</defs>
</svg>
